<svg id="圖層_1" data-name="圖層 1" xmlns="http://www.w3.org/2000/svg" viewBox="0 0 1080 333.96"><defs><style>.cls-1{fill:#fff;}</style></defs><path class="cls-1" d="M500.19,228.7l-69.43-163H373.69l98.49,228.29h52.18L623.18,65.65H570.67Zm0,2.37v0Zm-70-164.48Zm-55,0Q386.79,93.67,398.57,121L375.11,66.59Zm59.53,138,2.28,5.29Zm89.7,89.34,0,0,0,0,0,0Zm19.3-46.86q7.79-18,15.59-36Zm17.8-41.12q21.72-50.16,43.31-100.06Zm9.85-139.34C556.54,100.7,541.7,135,526.6,170L571.29,66.59Z"/><path class="cls-1" d="M1031.54,168.4l.56.19.07,0Z"/><path class="cls-1" d="M940.17,70l.22-.09.13,0Z"/><path class="cls-1" d="M1073.89,253.73l0,.06c0,.11-.1.22-.16.33C1073.77,254,1073.83,253.86,1073.89,253.73Z"/><path class="cls-1" d="M1074.21,253l0-.09,0,0Z"/><path class="cls-1" d="M1074.19,253.09l-.06.11a1.54,1.54,0,0,1-.08.19Z"/><path class="cls-1" d="M1078.73,214.54l-.06-.37,0-.16s0,.07,0,.1c-.21-1.16-.45-2.3-.73-3.41-.07-.31-.15-.61-.23-.91,0-.1,0-.2-.08-.3s-.11-.4-.17-.6-.07-.24-.1-.36-.11-.35-.16-.53l-.12-.38c0-.16-.1-.33-.16-.5l-.12-.38-.17-.48-.13-.39-.17-.47-.15-.38c-.05-.15-.11-.31-.17-.46l-.15-.38-.15-.38,0,.08a43.2,43.2,0,0,0-3.3-6.47,57.77,57.77,0,0,0-19.08-18.92l-.51-.31-.48-.28h0a89.68,89.68,0,0,0-18.27-8.62l-.44-.16-.48-.17-.6-.21-.39-.13.09,0-.16,0c-3.72-1.29-7.48-2.43-11.27-3.47-3.27-.93-6.91-1.89-11-2.91q-5.42-1.4-10.82-2.63-7.1-1.64-13.57-3.26t-12.36-3.27l-1.5-.43-.48-.15c-.33-.09-.66-.19-1-.3l-.57-.18-.86-.28-.59-.21-.8-.28q-2.54-.91-4.82-1.95l-1-.5-.21-.1-1-.49-.17-.09c-.3-.15-.59-.31-.88-.47l-.14-.07-.93-.53-.19-.11c-.94-.55-1.84-1.13-2.69-1.72s-1.48-1.1-2.2-1.69a19.83,19.83,0,0,1-4.15-5.52,21.83,21.83,0,0,1-1.86-6.45c0-.11,0-.21,0-.31a.53.53,0,0,0,0-.13c0-.27,0-.55,0-.82v-.2c0-.23,0-.46,0-.69v-.14c0-.85.11-1.68.23-2.5v-.09a2.34,2.34,0,0,0,0-.26l.09-.54,0-.17c.06-.26.11-.52.17-.78a1.46,1.46,0,0,1,0-.2c0-.19.09-.38.14-.58s.05-.17.08-.25.08-.3.13-.45l.12-.38-.06.19a.93.93,0,0,1,0-.13.88.88,0,0,1,0-.15l0,.09c.16-.47.34-1,.54-1.46l-.06.15a.42.42,0,0,1,0-.1l.09-.23,0,0-.09.21.13-.31c.06-.12.11-.24.16-.37l.22-.45.16-.34,0,0c.07-.14.14-.28.22-.42l0-.09.12-.22.06-.11c.07-.13.15-.26.23-.39a.43.43,0,0,1,0-.07l.13-.22.07-.12.28-.42,0,0,.08-.12.11-.16c.16-.23.32-.47.49-.69q4.25-5.7,14-9.3A55.61,55.61,0,0,1,976.46,105a98.65,98.65,0,0,1,13.94-.9,110.22,110.22,0,0,1,15.49,1.11,124.13,124.13,0,0,1,15.82,3.3,128.73,128.73,0,0,1,16,5.58q4,1.69,8,3.68t8,4.27L1070,82c-.5-.32-1-.63-1.52-.94l.68.41-.19-.12-.53-.32-.75-.45-1.2-.7-.76-.44-1.34-.75-.66-.36c-.67-.36-1.34-.72-2-1.07q-4.31-2.2-8.91-4.11-3.09-1.26-6.32-2.39l1.51.53-.48-.17-.16-.06-1.24-.43-.42-.15-1.42-.47.14,0-.27-.09h0l-.88-.29c-3.27-1.06-6.65-2-10.13-2.85s-6.84-1.55-10.29-2.17l.25,0-.43-.08-.12,0-2-.35-1.31-.21-.76-.12c-2.11-.33-4.22-.63-6.33-.88-3.54-.42-7.08-.74-10.64-1L999,61.93l-1,0-.71,0-1,0,.78,0-.53,0h-.55l-.43,0h.28l-2.26-.05h-5.54c-2.61,0-5.14.1-7.61.23l-.87,0h0c-3.73.21-7.37.54-10.9,1l-.2,0-.23,0-.47.07-1.77.23-.54.09h0l-.17,0h.12l-.67.09-1.23.2-.6.09-1.81.31a117.55,117.55,0,0,0-12.73,3l-1.37.42.14,0-.21.06-.12,0-.26.08-.45.15.36-.12-.87.29h0l-.26.09-.37.12-.15.05.22-.07-.36.12.14,0-.6.21-.57.2-.8.29-.57.21-.69.26.1,0-.21.08.11,0-.3.12-.36.14-.46.18.3-.12-.43.17a83.54,83.54,0,0,0-20.75,11.69l-1.24,1a66.37,66.37,0,0,0-7.31,6.85,59.55,59.55,0,0,0-6,7.66,65.33,65.33,0,0,0-4.64,8.29,61.61,61.61,0,0,0-3.31,8.71,62.49,62.49,0,0,0-2,9.14,68.46,68.46,0,0,0-.66,9.57,70.26,70.26,0,0,0,1.83,16.64,45.27,45.27,0,0,0,5.51,13.37,57.46,57.46,0,0,0,19.07,18.91,112.3,112.3,0,0,0,12.36,6.53,128.52,128.52,0,0,0,13.57,5.21q7.1,2.3,14.19,4.21t14.18,3.46q7.1,1.54,13.58,3.18t12.35,3.34a75.07,75.07,0,0,1,10.6,3.91,46.8,46.8,0,0,1,8.32,4.9,17.21,17.21,0,0,1,7.17,14.51,20.83,20.83,0,0,1-.42,4.22,22.22,22.22,0,0,1-.87,2.93c0,.11-.08.23-.13.34l0,.09a20.45,20.45,0,0,1-3.11,5.14,19.81,19.81,0,0,1-1.54,1.65c-17.93,16.37-68.55,11.74-103-7.3q-4.12-2.31-8-4.91l-.12-.08-.36-.24-1.7-1.19L890,271.44a86.69,86.69,0,0,0,8.28,5.6q4.44,2.65,9.49,5t10.72,4.49q5.67,2.12,11.95,3.95t12.7,3.21q6.42,1.38,13,2.29t13.27,1.38q6.7.45,13.56.46,8.15,0,15.6-.61t14.2-1.84a111.38,111.38,0,0,0,12.79-3.06,89.79,89.79,0,0,0,11.38-4.28c1.36-.62,2.69-1.26,4-1.92a85.2,85.2,0,0,0,11.74-7.13c1-.74,2-1.5,3-2.28a67.86,67.86,0,0,0,7.37-6.83,62.23,62.23,0,0,0,6-7.6c.21-.31.41-.62.61-.93l.2-.31.41-.64c0-.08.09-.15.14-.23l.16-.26c0-.08.1-.17.16-.25a64.86,64.86,0,0,0,3.18-5.9l.27-.59a1.63,1.63,0,0,0,.11-.23l.12-.28c0,.09-.07.17-.1.25.11-.26.23-.51.34-.77s.13-.3.19-.44.11-.27.17-.4a61.13,61.13,0,0,0,2.11-5.81l.15-.51v0l.16-.55,0-.11c.08-.26.15-.53.22-.8a61.46,61.46,0,0,0,1.46-7l.09-.7,0-.17,0,.17c.06-.41.11-.81.15-1.22A53.44,53.44,0,0,0,1078.73,214.54Zm-2.18-5.28c.17.55.32,1.11.47,1.66-.19-.71-.41-1.39-.62-2.09C1076.45,209,1076.51,209.12,1076.55,209.26Zm-30.31-33.65-.44-.22.33.16ZM1037,171.4l-1-.37Zm-3.15-2.21-.33-.11-.22-.08Zm-1,.65.4.15-1.32-.46Zm-3.75-1.26.45.14.39.14c-.91-.3-1.83-.6-2.75-.88l1.66.51Zm-5.8,75.9.3-.36-.15.19ZM1013,164q3.54.93,7.08,1.94-3.54-1-7.08-1.94t-7.08-1.81Q1009.45,163.07,1013,164Zm-14.16-3.5-3.93-.91Zm-5-1.16-2.84-.68ZM971,153.41l-1.2-.36Zm-3.57-1.16-1-.36Zm-20.73-27.91c0,.12,0,.23-.08.35C946.6,124.57,946.63,124.46,946.66,124.34Zm6.9,20.76.18.13-.1-.07Zm8.32,4.9.58.26-.33-.15Zm3.06,1.32-.93-.39ZM959.79,149l-.11-.06Zm-6.39-4a23.25,23.25,0,0,1-3-2.66A23.25,23.25,0,0,0,953.4,145Zm-4.35-4.29a16,16,0,0,1-.91-1.4A16,16,0,0,0,949.05,140.69Zm1.24,1.52a17.25,17.25,0,0,1-1.11-1.35A17.25,17.25,0,0,0,950.29,142.21Zm-3-4.75a16.06,16.06,0,0,1-.93-3.5A16.06,16.06,0,0,0,947.27,137.46Zm.77,1.64a13.77,13.77,0,0,1-.72-1.5A12.94,12.94,0,0,0,948,139.1Zm-1.9-7.13a18.44,18.44,0,0,0,.18,1.88A18.44,18.44,0,0,1,946.14,132Zm.76-8.5c.11-.41.24-.81.38-1.21C947.14,122.66,947,123.06,946.9,123.47Zm.62-1.85c.16-.39.33-.77.51-1.16C947.85,120.85,947.68,121.23,947.52,121.62Zm.77.95a1.72,1.72,0,0,0,.07-.21l0,0a2.09,2.09,0,0,1,.08-.23Zm0-2.71c.21-.41.44-.8.68-1.2C948.77,119.06,948.54,119.45,948.33,119.86Zm1-1.72c.36-.56.75-1.12,1.18-1.67C950.08,117,949.69,117.58,949.33,118.14Zm27-14A52.48,52.48,0,0,0,965,106.84a46.52,46.52,0,0,0-4.76,2,46.52,46.52,0,0,1,4.76-2,52.48,52.48,0,0,1,11.35-2.73c1.06-.15,2.15-.29,3.26-.41C978.47,103.82,977.38,104,976.32,104.11Zm-1-40.84c1.17-.1,2.35-.18,3.55-.25C977.7,63.09,976.52,63.17,975.35,63.27Zm15,39.93h0c-1.3,0-2.56,0-3.8,0C987.84,103.2,989.1,103.19,990.4,103.2Zm15.62,1.11c-1.33-.2-2.64-.36-3.95-.5,1.31.14,2.62.3,3.95.5s2.63.39,4,.62C1008.65,104.7,1007.33,104.49,1006,104.31Zm25.45,6.37c2.19.79,4.38,1.64,6.58,2.58C1035.85,112.32,1033.66,111.47,1031.47,110.68Zm14.62,6.29c-.67-.34-1.34-.65-2-1,.67.32,1.34.63,2,1l1,.5Zm4.8,2.47-1.83-1,1.83,1c.87.47,1.66.91,2.32,1.29h0C1052.55,120.35,1051.76,119.91,1050.89,119.44Zm11.82-22.1.77-1.89Zm5.22-15.56-.29-.17Zm-1-.58-.34-.2Zm-1.07-.62-.33-.19Zm-1.25-.7-.15-.09h0Zm-7.94-4,0,0c-.88-.41-1.77-.79-2.66-1.17l1,.41Zm-10.57-4.23-1.32-.46C1045.24,71.31,1045.69,71.46,1046.12,71.62Zm-3.84-1.3c-.72-.23-1.47-.44-2.21-.66.63.19,1.27.36,1.89.56Zm-4.66-1.38c-1.56-.43-3.13-.85-4.72-1.24C1034.49,68.09,1036.06,68.51,1037.62,68.94Zm-15.14-3.44c-3.47-.61-7-1.15-10.5-1.57-1.71-.2-3.43-.38-5.14-.53,1.71.15,3.43.33,5.14.53C1015.49,64.35,1019,64.89,1022.48,65.5Zm-18.57-2.32-2.2-.17h.18C1002.56,63.06,1003.23,63.13,1003.91,63.18Zm-5.34-.34,1,0,1.21.06.29,0c-1.38-.08-2.77-.13-4.16-.18Zm-7.84-.17c1.55,0,3.12,0,4.68.08-1.56,0-3.13-.07-4.68-.08h0Zm-1.31,0h-1.16l1.14,0Zm-6.9.16-2.15.1Zm3.68-.12-1.81.06ZM968.81,64l.4-.05.85-.1.58-.06-1.95.23Zm-31.35,8.26.13-.06.11,0-.24.1c-.87.4-1.73.81-2.58,1.22C935.73,73,936.59,72.61,937.46,72.21Zm-14.9,8.46-.66.47.28-.21ZM925,79c-.23.16-.46.32-.7.47C924.57,79.3,924.8,79.14,925,79ZM904.65,99.65l0,0v0Zm-3.33,6.15h0c-.31.7-.61,1.39-.91,2.1C900.71,107.19,901,106.5,901.32,105.8Zm1.79-3.47c-.13.23-.26.46-.38.69Zm-7.66,30.5c0-.79,0-1.58.06-2.38,0,.8,0,1.59-.06,2.38,0,1.49.06,2.95.14,4.38C895.51,135.78,895.47,134.32,895.45,132.83Zm7.2,29.51a39.39,39.39,0,0,1-3.12-6.19,39.39,39.39,0,0,0,3.12,6.19c1.21,1.88,2.5,3.71,3.88,5.46C905.15,166.05,903.86,164.22,902.65,162.34ZM1026,221.4a16.75,16.75,0,0,0-2.63-3.36,16.75,16.75,0,0,1,2.63,3.36,15.3,15.3,0,0,1,1.58,3.84A15.3,15.3,0,0,0,1026,221.4Zm2.17,11.48c0,.22,0,.43-.06.64C1028.11,233.31,1028.14,233.1,1028.15,232.88Zm-.17,1.78c0,.26-.1.51-.14.76C1027.88,235.17,1027.94,234.92,1028,234.66Zm-.33,1.69c-.06.27-.15.54-.23.81C1027.5,236.89,1027.59,236.62,1027.65,236.35Zm-.47,1.61c-.1.28-.21.55-.33.83C1027,238.51,1027.08,238.24,1027.18,238Zm-.63,1.55c-.13.28-.28.56-.42.84C1026.27,240.07,1026.42,239.79,1026.55,239.51Zm-.79,1.52c-.16.28-.34.55-.53.83C1025.42,241.58,1025.6,241.31,1025.76,241Zm-1,1.48q-.3.42-.63.84Q1024.5,242.93,1024.8,242.51Zm-2.47,3-.34.36Zm-56.24,50.67q-3.32-.29-6.6-.69Q962.77,295.9,966.09,296.18ZM1021,246.85l-.43.37Zm-1.72,1.4-.28.2Zm-1.52,1-.47.3Zm-2.05,1.2-.39.19Zm-70,.24c-1.1-.34-2.19-.68-3.29-1.06C943.43,250,944.52,250.38,945.62,250.72Zm4.82,1.37-1.22-.33ZM923.5,242l1.42.68L923.5,242c-1.48-.71-2.91-1.45-4.31-2.21C920.59,240.54,922,241.28,923.5,242Zm-10.41-5.75c-1.3-.79-2.49-1.57-3.49-2.25C910.6,234.67,911.79,235.45,913.09,236.24Zm-4.19-2.73c-.23-.15-.44-.3-.63-.44h0C908.46,233.21,908.67,233.36,908.9,233.51Zm-17.79,37.64,2.19-4.86q-1.11,2.44-2.19,4.86l.19.14h0Zm1,.73.11.07-.1-.06Zm3,2,.24.15Zm1.76,1.13.27.17Zm11.31,6.19c-2.47-1.2-4.88-2.43-7.17-3.71,2.29,1.28,4.7,2.51,7.17,3.71,1.67.78,3.41,1.55,5.19,2.29C911.53,282.79,909.79,282,908.12,281.24Zm35.16,11.58c-2.11-.47-4.23-1-6.34-1.49,2.11.53,4.23,1,6.34,1.49s4.28.87,6.44,1.24C947.56,293.69,945.41,293.27,943.28,292.82Zm39.62,4.1h0c1.34,0,2.68,0,4-.05C985.58,296.9,984.24,296.92,982.9,296.92Zm29.63-2.43-1.7.28,1.7-.28c3.32-.62,6.55-1.34,9.64-2.16C1019.08,293.15,1015.85,293.87,1012.53,294.49Zm20.33-5.73.47-.19-.1.05Zm-4,1.48.85-.31Zm49.29-54c0-.23.06-.47.08-.7,0,.23,0,.46-.08.68Zm.59-6.84q0-1.16.06-2.31c0-2.91-.19-5.74-.48-8.44.29,2.7.44,5.53.48,8.44Q1078.82,228.25,1078.77,229.4Zm-.32,4.59c0-.21,0-.41.06-.61C1078.49,233.58,1078.48,233.78,1078.45,234Zm.2-2.29c0-.26,0-.52,0-.77C1078.67,231.18,1078.66,231.44,1078.65,231.7Z"/><path class="cls-1" d="M1029.15,167.61l-.53-.16h0Z"/><path class="cls-1" d="M1023.66,64.77l-.58-.11,1.07.2Z"/><path class="cls-1" d="M858.8,220.38v.05c0-.11,0-.22,0-.33v0l0-.2h0l0-.18c-.07-.44-.13-.77-.18-1v0l0-.3a.36.36,0,0,0,0,.11q-.5-2.67-1.19-5.2l-.3-1.05c0-.11-.07-.23-.11-.34l-.11-.35c-.14-.45-.28-.91-.44-1.36v0c-.15-.44-.31-.88-.47-1.32l-.12-.33-.33-.84-.14-.36a1.17,1.17,0,0,0,0-.11h0a49.88,49.88,0,0,0-4.89-9.16c-.3-.44-.6-.86-.91-1.29a52.31,52.31,0,0,0-10.78-11.17,57.59,57.59,0,0,0-5.29-3.66l.15.09-.25-.16-.14-.08-.26-.16-.24-.14.08,0-.15-.09.07,0-.26-.16-.24-.14-.35-.2-.32-.18-.11-.06-.14-.08-.07,0-.82-.45L830,180c-.24-.13-.48-.26-.73-.38l-.4-.21-.68-.34-.42-.2-.69-.33-.41-.2-.76-.34-.36-.16-1.12-.49c-1.4-.59-2.83-1.14-4.28-1.65l.6.21-.31-.11-.14-.05-.43-.15-.08,0-.24-.08.14.05-1-.33.77.25-1.07-.36-.14,0a59.63,59.63,0,0,0,11.91-8.22,55.29,55.29,0,0,0,9.26-10.68c.18-.27.36-.54.53-.81.06-.09.12-.18.17-.27v0l.16-.26.18-.27a3.79,3.79,0,0,1,.2-.34l.3-.5,0,0,.18-.33.28-.48.18-.33.13-.24.15-.28.21-.39.24-.47h0l.19-.39.23-.47c.07-.14.13-.28.2-.41s.15-.31.22-.47.12-.28.19-.41l.21-.48.18-.42c.07-.15.13-.31.2-.47s.12-.29.17-.43l.2-.48c0-.14.11-.28.16-.43s.13-.32.19-.48.1-.29.16-.43.11-.33.17-.49l.15-.44c.06-.16.11-.33.17-.49s.09-.3.14-.44.1-.34.16-.5.09-.3.13-.45l.06-.18,0,.1c.07-.24.14-.47.2-.71s.19-.65.27-1l.06-.23c.06-.25.13-.5.19-.75s.06-.27.1-.41a2,2,0,0,1,0-.24,51.26,51.26,0,0,0,1.83-14.47,50.75,50.75,0,0,0-5.38-23.1c-.11-.24-.22-.47-.34-.71A50.09,50.09,0,0,0,836,90.76a60.28,60.28,0,0,0-9.48-8.8,62.22,62.22,0,0,0-5.45-3.64l.93.56-1.11-.67-.28-.16-1.37-.77-.11-.07-1.34-.71-.25-.13-1.42-.71-.29-.14-1.49-.7c-2.21-1-4.53-1.91-7-2.75l.43.15-.44-.15-.25-.09-.46-.15.39.13L806,71.59l.47.15-1-.34h0l-1.69-.52-.32-.09-1.69-.49-.34-.09-1.8-.47c-2.65-.67-5.42-1.26-8.29-1.76h0l-.21,0-.46-.08h0l-.1,0,.43.08-1.58-.26,1.15.18-1.54-.25h0c-.67-.11-1.35-.21-2-.3l-.37-.06-2-.26-.39,0-2.1-.24c-3.14-.34-6.4-.59-9.76-.76l-1,0-1.29,0-1.41,0h-.19l-1.1,0H767l-1.14,0,.84,0c-.57,0-1.13,0-1.7,0H650.24V293.94H768.3q5.63,0,10.91-.25c3.53-.18,6.93-.43,10.23-.78s6.48-.77,9.54-1.28,6-1.12,8.86-1.8a97.72,97.72,0,0,0,15.68-5.15,70.11,70.11,0,0,0,12.94-7.21,58.35,58.35,0,0,0,10.13-9c.37-.4.72-.82,1.06-1.23l.34-.42.68-.85c.13-.16.25-.33.38-.5l.58-.78.4-.56c.17-.25.36-.5.53-.76l.39-.59.49-.74c.13-.21.25-.42.38-.62l.45-.75c.13-.21.25-.42.37-.64l.42-.74.35-.67.37-.69-.25.47.3-.58c.22-.42.42-.85.63-1.29,0-.12.11-.24.17-.36l.47-1,.12-.29c.19-.44.37-.88.54-1.33l.12-.3c.14-.36.27-.72.4-1.09.05-.12.09-.25.14-.38.16-.45.31-.91.46-1.38v0q.18-.53.33-1.08c-.08.28-.16.55-.25.82q.69-2.19,1.2-4.5c.11-.49.21-1,.31-1.48,0-.15.06-.3.08-.45.07-.36.14-.73.2-1.1,0-.16,0-.31.07-.46.08-.48.15-.95.21-1.43,0,0,0-.07,0-.1a63.1,63.1,0,0,0,.63-8.37,64.86,64.86,0,0,0-.64-10C859,221.55,858.89,221,858.8,220.38Zm-71.69,30.88c-1.47.47-3,.87-4.66,1.22l-1.29.26-.34.07-1.21.21-.08,0-.37.05-.74.12-.83.12h-.07l-.95.12a99.61,99.61,0,0,1-12.18.69H702.75V197.73h61.64a82.72,82.72,0,0,1,18.06,1.76,39.25,39.25,0,0,1,13.08,5.25,22.44,22.44,0,0,1,8,8.85,27.79,27.79,0,0,1,2.65,12.52,28.2,28.2,0,0,1-2.65,12.68,21.3,21.3,0,0,1-8,8.68l-.83.5-.24.14-.67.37-.22.13-.89.45-.17.08c-.25.12-.51.25-.77.36l-.28.13-.79.34-.19.08-1,.39-.25.09-.8.29-.3.11Zm.75-99.76,0,0Zm-3.09-39.37a21.65,21.65,0,0,1,7.71,8.35,25.4,25.4,0,0,1,2.57,11.7,26.27,26.27,0,0,1-2.57,11.95,21.53,21.53,0,0,1-7.71,8.44l-.85.53-.23.13c-.26.16-.52.31-.79.45l-.1.06c-.3.17-.6.32-.91.48l-.24.12-.8.38-.17.08-1,.43-.24.1c-.27.11-.55.23-.83.33l-.23.09-1,.38-.23.08-.89.29c-1.27.4-2.59.77-4,1.08l-1.33.28-.3.06c-.43.08-.87.17-1.31.24l.13,0-.15,0h0l-.26.05h0l-.12,0h.11l-.85.13.61-.09-1,.15.4-.06-1.07.16.43-.06-1.4.19,1-.13-1,.13a89.86,89.86,0,0,1-10.89.62H702.75V105.44h52.51a77.74,77.74,0,0,1,17,1.67A38.31,38.31,0,0,1,784.77,112.13ZM795.51,138c-.08.44-.17.87-.28,1.29C795.34,138.9,795.43,138.47,795.51,138Zm-.4,1.8c-.11.39-.22.77-.34,1.15C794.89,140.6,795,140.22,795.11,139.83Zm-.51,1.66q-.2.57-.42,1.11Q794.41,142.06,794.6,141.49Zm-.6,1.57c-.21.49-.43,1-.67,1.44C793.57,144,793.79,143.55,794,143.06Zm-.7,1.51c-.29.57-.61,1.13-.93,1.67C792.69,145.7,793,145.14,793.3,144.57Zm-1.2,2.09c-.34.53-.69,1.05-1.07,1.55C791.41,147.71,791.76,147.19,792.1,146.66Zm-1.1,1.6c-.4.51-.82,1-1.27,1.47C790.18,149.25,790.6,148.77,791,148.26Zm-1.6,1.81c-.44.45-.91.89-1.4,1.31C788.49,151,789,150.52,789.4,150.07Zm-22.75,9.45-.25,0Zm-1.13.14-1.69.18Zm-2.51.25-1.64.11Zm-2.53.17-1.71.06Zm-2.59.09c-.78,0-1.57,0-2.37,0C756.32,160.19,757.11,160.18,757.89,160.17Zm32.38,40.73c-.63-.26-1.28-.52-1.95-.75l0,0C789,200.38,789.63,200.63,790.27,200.9Zm3.68,1.8c-.4-.23-.82-.45-1.24-.67C793.13,202.25,793.55,202.47,794,202.7Zm-1.82-1q-.64-.31-1.32-.6Q791.49,201.43,792.13,201.74Zm3.92,2.22c.57.36,1.1.74,1.61,1.12-.51-.38-1-.76-1.61-1.11s-1.06-.68-1.62-1Q795.27,203.45,796.05,204ZM755.31,104.5h0Zm9.08,92.3h0Zm33.69,8.61c.37.29.72.58,1,.88C798.8,206,798.45,205.7,798.08,205.41Zm1.47,1.26c.35.33.68.66,1,1C800.23,207.33,799.9,207,799.55,206.67Zm1.27,1.29c.41.45.79.91,1.15,1.39C801.61,208.87,801.23,208.41,800.82,208ZM793,250c-.63.31-1.27.6-1.93.88C791.69,250.58,792.33,250.29,793,250Zm.27-.13-.1.05Zm1.45-.78-.08.05Zm11.43-14.6-.18.62Zm-.45,1.48c-.07.19-.13.38-.19.56C805.53,236.33,805.59,236.14,805.66,236Zm-.56,1.49c-.05.15-.11.29-.17.44C805,237.73,805.05,237.59,805.1,237.44Zm1.84-7.69a6,6,0,0,1-.07.61A6,6,0,0,0,806.94,229.75Zm-.19,1.63-.12.68Zm-.28,1.57-.15.66Zm-18.33,19c-.73.24-1.48.46-2.25.67C786.66,252.42,787.41,252.2,788.14,252Zm-2.92.84c-.82.21-1.65.41-2.52.58C783.57,253.21,784.4,253,785.22,252.8Zm5.28-1.72c-.72.29-1.46.57-2.23.83C789,251.65,789.78,251.37,790.5,251.08Zm25.35-75.83h0l1.07-.59-.13.08Zm29.59-35-.12.35c.16-.6.3-1.21.44-1.82C845.65,139.27,845.56,139.77,845.44,140.25Zm.69-3.17c.14-.74.25-1.5.36-2.26C846.38,135.58,846.27,136.34,846.13,137.08Zm1-8c.09-1.36.14-2.74.16-4.13,0-1,0-1.93-.1-2.89.05,1,.09,1.93.1,2.9C847.25,126.4,847.2,127.77,847.11,129.13Zm-.37,4c.1-.86.18-1.74.25-2.62C846.92,131.42,846.84,132.3,846.74,133.16Zm-.29-18c0-.11-.05-.22-.07-.34,0,.05,0,.1,0,.15Zm.66,5.9c0-.6-.09-1.19-.14-1.78C847,119.87,847.07,120.46,847.11,121.06Zm-.27-3.06c-.06-.52-.13-1-.2-1.55C846.71,117,846.78,117.48,846.84,118ZM808.26,73.41c-.22-.08-.44-.17-.66-.24l.34.11Zm-3.93-1.32-.82-.26ZM768.3,293h0Zm.46,0h.68l-.67,0Zm6.11-.1c.57,0,1.13,0,1.69-.06l-1,.05Zm7-.32-.87.06Zm5-.37-.25,0,.74-.07-.15,0Zm71.5-54c0-.49.08-1,.11-1.48,0,.45-.05.9-.09,1.34C858.35,238.15,858.35,238.2,858.34,238.24Zm.24-3.25c.06-1.11.09-2.22.11-3.34h0C858.67,232.77,858.64,233.88,858.58,235Z"/><path class="cls-1" d="M806.59,71.8h0l-.17-.06.25.09Z"/><path class="cls-1" d="M842.37,151.07s0,0,0,.06h0Z"/><path class="cls-1" d="M822.06,78.92l-.06,0,.08.05Z"/><path class="cls-1" d="M808,72.3l-.22-.08.94.34Z"/><path class="cls-1" d="M791.93,68.1l-.27,0,1.13.21Z"/><path class="cls-1" d="M768.72,65.76l-1.09,0,1.64,0Z"/><path class="cls-1" d="M59.13,135.52V233a48.75,48.75,0,0,0,0-97.5Z"/><path class="cls-1" d="M207.56,61.74V306.8a122.53,122.53,0,0,0,0-245.06Z"/><path class="cls-1" d="M119.3,107.06V261.48a77.21,77.21,0,0,0,0-154.42Z"/></svg>