<svg id="圖層_1" data-name="圖層 1" xmlns="http://www.w3.org/2000/svg" viewBox="0 0 969.6 333.96"><defs><style>.cls-1{fill:#fff;}</style></defs><path class="cls-1" d="M176.31,232,84.11,15.44H8.32L139.11,318.6H208.4L339.63,15.44H269.9Zm0,3.15,0-.05,0,.05Zm-93-218.43Zm-73.08,0,31.14,72.2L10.21,16.68ZM89.26,199.91l3,7ZM208.37,318.55l0-.05,0,0,0,.05ZM234,256.33l20.7-47.81Zm23.64-54.61L315.16,68.84Zm13.08-185L211.37,154,270.72,16.68Z"/><path class="cls-1" d="M881.91,151.88l.74.25.09,0Z"/><path class="cls-1" d="M760.57,21.27l.3-.12.16-.07Z"/><path class="cls-1" d="M938.14,265.2s0,.05,0,.08-.14.29-.2.43Z"/><path class="cls-1" d="M938.57,264.27l.06-.13,0,.05Z"/><path class="cls-1" d="M938.54,264.35l-.08.15a2.56,2.56,0,0,1-.11.24Z"/><path class="cls-1" d="M944.57,213.16l-.09-.5,0-.21a.68.68,0,0,0,0,.14c-.28-1.55-.61-3.06-1-4.53-.1-.41-.2-.81-.31-1.22,0-.13-.07-.26-.11-.39s-.15-.54-.22-.8l-.14-.47-.21-.71c0-.17-.1-.33-.16-.5l-.21-.67c0-.17-.11-.34-.17-.51l-.21-.63-.18-.52-.23-.62c-.06-.17-.12-.34-.19-.51l-.23-.6-.2-.51c-.07-.17-.13-.34-.2-.5l0,.1a56,56,0,0,0-4.38-8.6,76.76,76.76,0,0,0-25.33-25.11l-.68-.41-.64-.38h0a120.68,120.68,0,0,0-24.27-11.44l-.58-.2-.64-.23-.79-.28-.52-.18.12,0-.21-.07c-4.94-1.71-9.94-3.22-15-4.6-4.34-1.23-9.17-2.52-14.57-3.87q-7.18-1.84-14.36-3.49-9.42-2.16-18-4.33t-16.4-4.33l-2-.58-.64-.19-1.31-.4-.75-.25-1.14-.38-.79-.27c-.35-.12-.71-.24-1.05-.37-2.25-.81-4.39-1.68-6.4-2.6-.47-.21-.93-.43-1.38-.65l-.29-.13-1.3-.66-.22-.11-1.17-.63-.19-.1-1.23-.69-.26-.16c-1.25-.73-2.43-1.49-3.56-2.28s-2-1.45-2.92-2.24a26.06,26.06,0,0,1-5.51-7.34,28.57,28.57,0,0,1-2.48-8.56l0-.41v-.18q0-.54,0-1.08V101c0-.31,0-.61,0-.92a1.21,1.21,0,0,1,0-.19,29.89,29.89,0,0,1,.3-3.32v-.12l.06-.35.12-.71c0-.08,0-.15,0-.23.07-.34.14-.69.22-1l.06-.26c.06-.26.13-.52.2-.77l.09-.34.18-.59c0-.17.11-.34.16-.51,0,.09-.06.17-.08.25a1.54,1.54,0,0,1,.05-.17c0-.07,0-.13.07-.2s0,.08,0,.12c.21-.63.45-1.28.72-1.94a1.67,1.67,0,0,0-.08.2.5.5,0,0,1,.05-.13l.12-.3s0,0,0,0a2.33,2.33,0,0,1-.11.28l.17-.41c.07-.16.14-.33.22-.49l.28-.6c.08-.15.15-.3.22-.45l0,0c.09-.19.19-.37.29-.56l.07-.12.16-.29.08-.15.31-.52a.22.22,0,0,1,.05-.08c.06-.1.11-.2.17-.29s.07-.11.1-.16.24-.38.37-.57l0,0,.1-.15.15-.22c.21-.31.43-.62.65-.92q5.63-7.58,18.62-12.34a72.9,72.9,0,0,1,14.84-3.57,130.41,130.41,0,0,1,18.51-1.2A146.8,146.8,0,0,1,847.84,68a165.46,165.46,0,0,1,21,4.38,170.68,170.68,0,0,1,21.22,7.42q5.29,2.25,10.61,4.88t10.61,5.67L932.94,37.1c-.66-.43-1.34-.84-2-1.25l.89.54-.24-.15-.7-.42-1-.61-1.59-.93-1-.59c-.59-.33-1.18-.66-1.78-1-.29-.16-.57-.33-.87-.48-.89-.49-1.78-1-2.69-1.43q-5.7-2.93-11.83-5.45-4.1-1.68-8.39-3.18c.67.23,1.34.46,2,.71l-.63-.23-.22-.08c-.54-.2-1.09-.39-1.64-.57l-.56-.2c-.62-.22-1.25-.42-1.88-.63l.18.06-.35-.12h0l-1.18-.39c-4.34-1.4-8.83-2.66-13.44-3.78s-9.1-2.06-13.67-2.88l.33.06-.58-.11-.15,0-2.71-.47-1.74-.28-1-.16q-4.2-.64-8.41-1.16-7-.84-14.13-1.26c-1.06-.06-2.13-.12-3.19-.16l-1.35-.06-.95,0-1.26-.05,1,0-.71,0-.45,0h-.28l-.57,0h.37l-3-.06H827.7c-1.16,0-2.32,0-3.47,0q-5.19,0-10.1.29l-1.16.06h-.06q-7.42.41-14.47,1.31l-.26,0-.31,0-.62.09c-1,.12-1.45.18-2.35.31l-.72.11h.07l-.23,0,.16,0-.88.13-1.65.26-.79.13-2.41.41a151.57,151.57,0,0,0-16.9,4l-1.82.56.19-.06-.28.09-.16.05-.34.11-.6.19.48-.15-1.16.38h0l-.34.12-.49.16-.19.07.29-.1-.49.17.2-.07-.8.27-.77.27-1.06.39-.76.28-.9.34.13-.05-.28.11.15-.06-.41.16-.47.18-.62.24.4-.15-.56.22a110.49,110.49,0,0,0-27.56,15.52c-.56.43-1.1.86-1.64,1.29a87,87,0,0,0-9.72,9.1A80,80,0,0,0,714,57.23a87.42,87.42,0,0,0-6.16,11,83.89,83.89,0,0,0-4.4,11.57A84.86,84.86,0,0,0,700.82,92a91.44,91.44,0,0,0-.87,12.71,93.21,93.21,0,0,0,2.43,22.08,60.43,60.43,0,0,0,7.31,17.76A76.67,76.67,0,0,0,735,169.62a150.15,150.15,0,0,0,16.41,8.66,169.12,169.12,0,0,0,18,6.93q9.42,3,18.84,5.58t18.84,4.6q9.42,2.06,18,4.22t16.4,4.44a99.69,99.69,0,0,1,14.08,5.19,62.4,62.4,0,0,1,11,6.5A22.86,22.86,0,0,1,876.21,235a27.16,27.16,0,0,1-.57,5.61,28.33,28.33,0,0,1-1.14,3.88l-.18.46s0,.08,0,.11a26.85,26.85,0,0,1-4.13,6.83,26.33,26.33,0,0,1-2,2.2c-23.8,21.73-91,15.59-136.84-9.7q-5.47-3.06-10.66-6.52l-.16-.1-.48-.33-2.26-1.57-23.82,52.84a119,119,0,0,0,11,7.43q5.89,3.53,12.61,6.69t14.24,6q7.53,2.81,15.86,5.24t16.87,4.26q8.52,1.83,17.24,3.05t17.62,1.83q8.91.6,18,.6,10.83,0,20.72-.81t18.85-2.43a154.27,154.27,0,0,0,17-4.06A119.56,119.56,0,0,0,889,310.8q2.71-1.23,5.29-2.55a112.64,112.64,0,0,0,15.58-9.47c1.37-1,2.69-2,4-3a91.32,91.32,0,0,0,9.79-9.06,82.45,82.45,0,0,0,8-10.1c.28-.41.55-.83.82-1.24l.26-.4.54-.85.19-.31c.08-.11.15-.23.22-.34a3.79,3.79,0,0,1,.2-.34,81.05,81.05,0,0,0,4.23-7.83l.36-.78.15-.31.16-.37c0,.11-.09.22-.14.32l.45-1c.09-.19.17-.39.26-.58s.14-.35.22-.53a80,80,0,0,0,2.8-7.72c.07-.22.14-.45.2-.67v0c.08-.25.15-.49.22-.74a1,1,0,0,1,0-.14c.1-.35.19-.7.29-1.06a80.86,80.86,0,0,0,1.93-9.36c.05-.3.09-.61.13-.92l0-.23,0,.23c.07-.54.14-1.08.2-1.62A71.35,71.35,0,0,0,944.57,213.16Zm-2.89-7c.21.73.42,1.46.61,2.2-.24-.94-.54-1.85-.82-2.78C941.54,205.76,941.62,206,941.68,206.15Zm-40.26-44.69-.58-.29c.14.07.29.13.43.21Zm-12.29-5.59-1.31-.5Zm-4.19-2.93-.44-.16-.28-.1Zm-1.35.86.53.19-1.75-.61Zm-5-1.68.6.19.52.18q-1.82-.6-3.66-1.17l2.2.69ZM870.9,252.91l.41-.48-.21.26A2.09,2.09,0,0,1,870.9,252.91ZM857.27,146c3.13.82,6.27,1.68,9.4,2.57-3.13-.89-6.27-1.75-9.4-2.57s-6.26-1.63-9.4-2.4Q852.58,144.79,857.27,146Zm-18.8-4.65-5.22-1.21Zm-6.58-1.54-3.78-.9ZM801.46,132l-1.6-.47Zm-4.74-1.53-1.29-.48ZM769.19,93.37c0,.16-.07.32-.11.47C769.11,93.68,769.15,93.53,769.19,93.37Zm9.16,27.57.24.18-.14-.1Zm11,6.51.77.35-.45-.2Zm4.07,1.75-1.25-.52Zm-6.85-3.07-.15-.08Zm-8.48-5.35a30.38,30.38,0,0,1-4-3.53A30.38,30.38,0,0,0,778.14,120.78Zm-5.78-5.69a20.93,20.93,0,0,1-1.2-1.86A20.93,20.93,0,0,0,772.36,115.09Zm1.65,2a20.34,20.34,0,0,1-1.48-1.79A21.91,21.91,0,0,0,774,117.11Zm-4-6.31a22,22,0,0,1-1.24-4.65A22,22,0,0,0,770,110.8Zm1,2.18a20.34,20.34,0,0,1-.95-2A20.34,20.34,0,0,0,771,113Zm-2.53-9.47c0,.86.13,1.69.25,2.49C768.62,105.2,768.54,104.37,768.49,103.51Zm1-11.29c.15-.54.32-1.08.51-1.6C769.82,91.14,769.65,91.68,769.5,92.22Zm.83-2.45c.21-.52.44-1,.68-1.54C770.77,88.74,770.54,89.25,770.33,89.77Zm1,1.25c0-.09.07-.18.1-.27l0,0c0-.1.07-.2.11-.3Zm0-3.6c.28-.53.59-1.06.91-1.59C772,86.36,771.68,86.89,771.4,87.42Zm1.33-2.28c.48-.74,1-1.48,1.57-2.22C773.73,83.66,773.21,84.4,772.73,85.14Zm35.85-18.63a68.9,68.9,0,0,0-15.08,3.63,58.78,58.78,0,0,0-6.32,2.6,58.78,58.78,0,0,1,6.32-2.6,68.9,68.9,0,0,1,15.08-3.63c1.41-.2,2.84-.38,4.32-.54C811.42,66.13,810,66.31,808.58,66.51Zm-1.3-54.23c1.56-.13,3.13-.24,4.72-.33C810.41,12,808.84,12.15,807.28,12.28Zm20,53h0q-2.58,0-5,.06Q824.69,65.29,827.27,65.3ZM848,66.78c-1.76-.26-3.51-.49-5.25-.67,1.74.18,3.49.41,5.25.67s3.5.51,5.25.82Q850.64,67.14,848,66.78Zm33.81,8.45c2.9,1,5.81,2.18,8.73,3.44C887.63,77.41,884.72,76.28,881.82,75.23Zm19.41,8.35c-.89-.45-1.78-.85-2.67-1.28.89.43,1.78.83,2.67,1.28l1.33.67Zm6.37,3.29-2.43-1.29,2.43,1.29c1.15.62,2.2,1.2,3.07,1.71h0C909.8,88.07,908.75,87.49,907.6,86.87Zm15.7-29.34,1-2.51Zm6.93-20.67-.39-.23Zm-1.3-.77c-.15-.09-.3-.18-.46-.26C928.63,35.91,928.78,36,928.93,36.09Zm-1.43-.83-.43-.24Zm-1.66-.93-.19-.11h0ZM915.3,29l0,0c-1.17-.53-2.35-1-3.54-1.55.44.19.9.37,1.32.56Zm-14-5.62-1.76-.61Zm-5.1-1.72c-1-.3-1.95-.58-2.94-.87l2.52.73ZM890,19.81c-2.07-.57-4.15-1.13-6.26-1.65Q886.88,18.94,890,19.81Zm-20.1-4.57c-4.61-.81-9.28-1.53-14-2.09-2.26-.27-4.54-.5-6.82-.7,2.28.2,4.56.43,6.82.7C860.59,13.71,865.26,14.43,869.87,15.24Zm-24.66-3.09-2.92-.22.24,0Zm-7.09-.44,1.33.07,1.6.08.39,0c-1.83-.1-3.68-.18-5.52-.24Zm-10.42-.23c2.07,0,4.15,0,6.23.1-2.08-.05-4.16-.09-6.23-.1h0Zm-1.72,0-1.55,0,1.51,0Zm-9.18.22c-1,0-1.9.08-2.85.13C814.9,11.8,815.84,11.75,816.8,11.72Zm4.89-.15-2.4.07ZM798.6,13.18l.54-.06,1.12-.14.77-.07-2.59.29ZM757,24.15l.18-.08.13-.05-.31.13c-1.15.53-2.3,1.07-3.43,1.62C754.67,25.22,755.82,24.68,757,24.15ZM737.18,35.38l-.88.63.37-.28C736.84,35.61,737,35.5,737.18,35.38Zm3.29-2.24-.93.63ZM713.4,60.59l0,0,0,0ZM709,68.76h0c-.41.92-.81,1.85-1.21,2.78C708.17,70.61,708.57,69.68,709,68.76Zm2.37-4.61-.5.92Zm-10.16,40.51c0-1.06,0-2.11.07-3.17,0,1.06-.06,2.11-.07,3.17,0,2,.08,3.91.18,5.81C701.27,108.57,701.21,106.63,701.19,104.66Zm9.55,39.18a52.66,52.66,0,0,1-4.14-8.22,52.66,52.66,0,0,0,4.14,8.22c1.61,2.49,3.33,4.93,5.16,7.25C714.07,148.77,712.35,146.33,710.74,143.84Zm163.78,78.42A22.59,22.59,0,0,0,871,217.8a22.59,22.59,0,0,1,3.49,4.46,20.21,20.21,0,0,1,2.1,5.11A20.58,20.58,0,0,0,874.52,222.26Zm2.89,15.25c0,.29-.06.57-.09.85C877.35,238.08,877.39,237.8,877.41,237.51Zm-.24,2.36c0,.35-.12.68-.19,1C877.05,240.55,877.12,240.22,877.17,239.87Zm-.43,2.24c-.08.37-.2.72-.3,1.08C876.54,242.83,876.66,242.48,876.74,242.11Zm-.63,2.14c-.12.38-.28.74-.43,1.1C875.83,245,876,244.63,876.11,244.25Zm-.83,2.07c-.17.37-.37.74-.57,1.1C874.91,247.06,875.11,246.69,875.28,246.32Zm-1,2c-.22.37-.46.74-.7,1.1C873.77,249.07,874,248.7,874.23,248.33Zm-1.28,2c-.26.37-.54.74-.83,1.11C872.41,251,872.69,250.67,873,250.3Zm-3.28,4-.45.47ZM795,321.56c-2.93-.25-5.85-.56-8.76-.9C789.14,321,792.06,321.31,795,321.56Zm72.85-65.5-.57.49Zm-2.28,1.85c-.12.1-.26.18-.38.27C865.3,258.09,865.44,258,865.56,257.91Zm-2,1.38-.63.39Zm-2.72,1.59-.52.26Zm-93,.32c-1.46-.45-2.92-.91-4.38-1.41C764.89,260.29,766.35,260.75,767.81,261.2ZM774.2,263l-1.62-.44Zm-35.77-13.41,1.89.89-1.89-.89q-2.94-1.43-5.71-2.94Q735.5,248.19,738.43,249.61ZM724.6,242c-1.71-1.05-3.3-2.09-4.62-3C721.3,239.88,722.89,240.92,724.6,242ZM719,238.35l-.83-.59h0Zm-23.62,50,2.91-6.45q-1.47,3.24-2.91,6.45l.25.19h0Zm1.3,1a.71.71,0,0,1,.14.1l-.12-.09Zm3.94,2.7.31.21Zm2.33,1.51.36.23Zm15,8.21c-3.29-1.58-6.48-3.21-9.52-4.91,3,1.7,6.23,3.33,9.52,4.91,2.22,1,4.52,2.06,6.89,3C722.53,303.78,720.23,302.77,718,301.72Zm46.7,15.38c-2.81-.62-5.62-1.27-8.42-2,2.8.71,5.61,1.36,8.42,2s5.68,1.16,8.54,1.66C770.39,318.26,767.53,317.71,764.71,317.1Zm52.6,5.45h0c1.79,0,3.56,0,5.31-.06C820.87,322.52,819.1,322.55,817.31,322.55Zm39.35-3.22-2.26.37,2.26-.37c4.4-.84,8.69-1.78,12.8-2.88C865.35,317.55,861.06,318.49,856.66,319.33Zm27-7.62.62-.24-.13,0Zm-5.27,2,1.12-.4ZM943.84,242c0-.31.07-.62.11-.92,0,.29-.07.6-.11.89Zm.78-9.09c0-1,.06-2,.08-3.06-.05-3.87-.25-7.62-.64-11.21.39,3.59.59,7.34.64,11.21C944.68,230.84,944.66,231.86,944.62,232.88Zm-.42,6.1c0-.27,0-.54.07-.81C944.25,238.44,944.23,238.71,944.2,239Zm.26-3c0-.34,0-.68,0-1C944.49,235.26,944.48,235.6,944.46,235.94Z"/><path class="cls-1" d="M878.73,150.84l-.7-.22h0Z"/><path class="cls-1" d="M871.44,14.27l-.77-.14,1.42.26Z"/><path class="cls-1" d="M652.51,220.9a.2.2,0,0,1,0,.07l-.06-.43v0c0-.09,0-.17,0-.26v0a2,2,0,0,1,0-.24c-.1-.57-.17-1-.23-1.34v0c0-.17,0-.3-.07-.39l0,.14c-.44-2.37-1-4.67-1.58-6.91-.13-.47-.26-.93-.4-1.39,0-.15-.09-.3-.14-.46s-.09-.3-.14-.45c-.19-.61-.39-1.22-.59-1.82v0c-.2-.59-.41-1.18-.63-1.76l-.16-.43c-.14-.38-.29-.75-.44-1.13l-.19-.47a.88.88,0,0,1-.05-.15h0a65.9,65.9,0,0,0-6.5-12.16q-.59-.87-1.2-1.71a69.63,69.63,0,0,0-14.32-14.84,78.63,78.63,0,0,0-7-4.86l.2.12-.33-.2-.19-.12-.34-.21a3.37,3.37,0,0,1-.32-.19l.1.07-.19-.12.09,0-.35-.2-.32-.19-.47-.27-.42-.24-.14-.08-.19-.11-.09,0-1.09-.6-.44-.23-1-.51-.53-.27-.9-.45-.56-.28-.91-.43-.55-.26-1-.46-.47-.21-1.5-.65q-2.79-1.17-5.68-2.2l.8.28-.41-.14-.19-.07-.57-.2-.11,0-.31-.11.17.06-1.3-.44,1,.34-1.41-.48-.18-.06a79,79,0,0,0,15.81-10.92,73.69,73.69,0,0,0,12.29-14.17c.24-.36.48-.72.71-1.08l.23-.36v0l.22-.35.22-.36.27-.45.39-.66,0-.05.24-.43c.12-.21.25-.42.36-.64s.17-.29.25-.44.12-.21.17-.32.14-.24.2-.36l.27-.52.33-.63h0c.09-.17.18-.34.26-.51s.21-.42.31-.63l.26-.54c.1-.2.2-.41.29-.62s.17-.37.25-.55.19-.42.28-.63.17-.37.25-.56l.26-.63c.08-.18.16-.37.23-.56s.18-.42.26-.64l.22-.57.24-.64c.07-.19.15-.38.22-.58s.15-.43.23-.64.13-.39.2-.58.14-.44.22-.66.13-.39.19-.59.14-.44.2-.66.13-.39.19-.59,0-.16.07-.25,0,.09,0,.14c.09-.32.19-.63.27-.94s.24-.86.36-1.3c0-.1,0-.2.07-.3.09-.34.18-.67.26-1l.12-.54c0-.1,0-.21.08-.32a67.93,67.93,0,0,0,2.43-19.21,67.44,67.44,0,0,0-7.14-30.68l-.45-.94a66.94,66.94,0,0,0-9-13.42,81,81,0,0,0-19.83-16.52c.42.24.83.49,1.24.74-.49-.3-1-.6-1.48-.89l-.37-.22c-.6-.34-1.2-.69-1.81-1l-.15-.08c-.59-.32-1.18-.64-1.78-.95l-.34-.18c-.62-.31-1.24-.63-1.87-.93l-.39-.19c-.66-.31-1.32-.63-2-.93q-4.4-2-9.23-3.65l.57.19-.58-.2-.33-.11-.62-.21.52.18c-.48-.17-1-.33-1.47-.49l.62.2-1.37-.45-.07,0c-.74-.24-1.49-.46-2.24-.69l-.42-.13-2.26-.64-.45-.12-2.39-.63q-5.28-1.32-11-2.33h.08l-.12,0-.27,0-.61-.11h0l-.13,0,.57.1-2.1-.35,1.53.25L559.65,18h0l-2.69-.4-.5-.07-2.64-.35-.51-.06c-.92-.12-1.85-.22-2.79-.33q-6.25-.67-13-1l-1.29-.06-1.71-.07c-.62,0-1.24-.05-1.87-.06h-.25l-1.47-.05.51,0-.54,0h-.36l-1.5,0,1.1,0-2.25,0H375.57V318.6H532.34q7.47,0,14.49-.34t13.58-1q6.55-.68,12.67-1.71t11.77-2.39a128.34,128.34,0,0,0,20.82-6.84,93.2,93.2,0,0,0,17.19-9.57,78.55,78.55,0,0,0,13.45-12c.48-.54.94-1.09,1.4-1.64l.45-.55.9-1.13.5-.67c.26-.34.53-.69.78-1s.35-.49.52-.73.48-.67.71-1l.52-.78c.22-.33.44-.66.65-1l.5-.82.61-1,.48-.86c.19-.33.38-.65.56-1l.47-.88.49-.92-.33.62c.13-.25.27-.5.4-.76.28-.56.56-1.14.83-1.71.07-.16.15-.32.22-.49.22-.46.42-.92.63-1.39l.16-.39c.25-.58.49-1.17.72-1.76.06-.13.11-.27.16-.4.18-.48.36-1,.53-1.44l.18-.51c.22-.6.42-1.21.62-1.83v0c.15-.47.3-.95.44-1.43l-.33,1.09q.92-2.92,1.59-6c.15-.65.28-1.31.41-2,0-.2.07-.4.11-.59.09-.49.18-1,.26-1.48,0-.2.07-.4.1-.6.1-.63.19-1.27.28-1.9a.51.51,0,0,1,0-.13,82,82,0,0,0,.83-11.11,86.31,86.31,0,0,0-.84-13.28C652.75,222.47,652.63,221.69,652.51,220.9Zm-95.2,41q-2.92.93-6.19,1.62l-1.71.35L549,264l-1.6.29h-.1l-.5.08-1,.15-1.1.16-.09,0-1.26.16a132.37,132.37,0,0,1-16.17.92H445.29V190.84h81.86a109.39,109.39,0,0,1,24,2.33,51.94,51.94,0,0,1,17.38,7,29.92,29.92,0,0,1,10.56,11.75,37,37,0,0,1,3.52,16.62,37.54,37.54,0,0,1-3.52,16.83,28.38,28.38,0,0,1-10.56,11.53c-.36.23-.73.45-1.1.67l-.32.19-.89.49-.3.16-1.18.61-.23.1c-.33.17-.67.33-1,.49l-.37.16q-.52.24-1.05.45l-.25.11-1.31.52-.34.12-1.06.38-.4.14C558.23,261.63,557.78,261.78,557.31,261.92Zm1-132.47.06,0Zm-4.1-52.29a28.81,28.81,0,0,1,10.23,11.09,33.57,33.57,0,0,1,3.41,15.54,34.74,34.74,0,0,1-3.41,15.86,28.63,28.63,0,0,1-10.23,11.21c-.37.24-.75.47-1.13.7l-.3.18q-.53.31-1,.6l-.14.08c-.39.22-.8.43-1.21.63l-.32.16c-.35.18-.7.35-1.06.51l-.23.11-1.29.57-.32.13c-.37.15-.73.3-1.11.44l-.3.12c-.45.17-.91.34-1.38.5l-.3.1c-.39.14-.79.27-1.19.39q-2.52.81-5.29,1.43c-.58.14-1.17.26-1.77.38l-.38.08-1.75.32.17,0-.2,0h0l-.35.06h0l-.17,0,.15,0-1.12.17.8-.12-1.33.21.53-.09c-.47.08-1,.15-1.43.21l.57-.07c-.61.08-1.23.17-1.85.24l1.28-.17-1.3.18a118.55,118.55,0,0,1-14.47.82H445.29V68.28H515a102.8,102.8,0,0,1,22.57,2.22A50.89,50.89,0,0,1,554.21,77.16Zm14.26,34.4c-.11.58-.23,1.15-.37,1.71C568.24,112.71,568.36,112.14,568.47,111.56Zm-.54,2.38c-.13.52-.29,1-.45,1.53C567.64,115,567.8,114.46,567.93,113.94Zm-.67,2.21c-.17.5-.36,1-.56,1.48C566.9,117.14,567.09,116.65,567.26,116.15Zm-.8,2.08c-.27.65-.56,1.29-.88,1.92C565.9,119.52,566.19,118.88,566.46,118.23Zm-.92,2c-.39.76-.81,1.5-1.25,2.22C564.73,121.74,565.15,121,565.54,120.24Zm-1.6,2.78c-.44.7-.91,1.39-1.42,2C563,124.41,563.5,123.72,563.94,123Zm-1.46,2.11a24,24,0,0,1-1.69,2A24,24,0,0,0,562.48,125.13Zm-2.13,2.42q-.87.9-1.86,1.74Q559.48,128.45,560.35,127.55ZM530.14,140.1l-.33,0Zm-1.5.18-2.24.23Zm-3.32.33c-.72,0-1.45.11-2.18.15C523.87,140.72,524.6,140.67,525.32,140.61Zm-3.36.22c-.75,0-1.51.06-2.28.09C520.45,140.89,521.21,140.87,522,140.83Zm-3.44.12c-1,0-2.09,0-3.15,0C516.43,141,517.48,141,518.52,141Zm43,54.09c-.84-.35-1.69-.68-2.59-1h0C559.79,194.34,560.66,194.69,561.51,195Zm4.89,2.39c-.54-.3-1.08-.6-1.65-.89C565.31,196.83,565.86,197.13,566.4,197.43ZM564,196.16c-.57-.28-1.15-.54-1.75-.8C562.83,195.62,563.41,195.88,564,196.16Zm5.21,3c.75.48,1.45,1,2.13,1.48-.68-.51-1.38-1-2.13-1.48s-1.41-.9-2.15-1.32C567.78,198.21,568.49,198.65,569.19,199.11ZM515.08,67H515s0,0,.06,0ZM527.15,189.6h0ZM571.89,201c.48.38,1,.76,1.39,1.16C572.84,201.8,572.37,201.42,571.89,201Zm2,1.67q.69.64,1.32,1.32Q574.53,203.36,573.84,202.71Zm1.68,1.71c.54.6,1.05,1.21,1.53,1.85C576.57,205.63,576.06,205,575.52,204.42Zm-10.44,55.8c-.83.41-1.68.79-2.56,1.16C563.4,261,564.25,260.63,565.08,260.22Zm.36-.18-.13.07Zm1.92-1-.1.06Zm15.18-19.39c-.07.28-.15.55-.23.83C582.39,240.17,582.47,239.9,582.54,239.62Zm-.6,2c-.08.25-.16.5-.25.74C581.78,242.09,581.86,241.84,581.94,241.59Zm-.73,2c-.08.2-.15.39-.23.58C581.06,244,581.13,243.76,581.21,243.56Zm2.44-10.21c0,.28-.06.54-.09.81C583.59,233.89,583.63,233.63,583.65,233.35Zm-.26,2.17c0,.3-.1.6-.15.9C583.29,236.12,583.35,235.82,583.39,235.52ZM583,237.6c-.06.3-.13.59-.19.88C582.89,238.19,583,237.9,583,237.6Zm-24.34,25.24c-1,.32-2,.61-3,.89C556.71,263.45,557.72,263.16,558.68,262.84ZM554.8,264c-1.08.27-2.18.54-3.33.77C552.62,264.51,553.72,264.25,554.8,264Zm7-2.29c-.95.39-1.93.76-2.95,1.1C559.88,262.44,560.86,262.07,561.81,261.68ZM595.49,161h0l1.41-.78-.17.1Zm39.28-46.48c0,.16-.11.31-.15.47.21-.8.39-1.6.58-2.42C635.05,113.2,634.94,113.87,634.77,114.5Zm.91-4.21c.19-1,.34-2,.49-3C636,108.3,635.87,109.3,635.68,110.29ZM637,99.74c.11-1.81.18-3.64.21-5.48,0-1.29-.07-2.57-.13-3.84.06,1.27.11,2.55.13,3.84C637.18,96.1,637.11,97.93,637,99.74Zm-.5,5.35c.14-1.15.23-2.32.33-3.49C636.73,102.77,636.64,103.94,636.5,105.09Zm-.39-23.9c0-.15-.06-.3-.08-.45,0,.06,0,.12,0,.19A2,2,0,0,1,636.11,81.19ZM637,89c0-.79-.12-1.58-.19-2.36C636.88,87.43,636.93,88.22,637,89ZM636.63,85c-.08-.69-.17-1.38-.27-2.06C636.46,83.58,636.55,84.27,636.63,85ZM585.4,25.74l-.87-.32.44.15ZM580.18,24l-1.08-.35ZM532.34,317.36h0Zm.6,0h0Zm8.13-.14,2.24-.07c-.46,0-.9,0-1.36.06Zm9.23-.42-1.15.08Zm6.66-.5-.33,0,1-.09-.2,0Zm94.94-71.66c.07-.65.11-1.31.15-2,0,.59-.07,1.2-.12,1.79Zm.32-4.32c.08-1.47.13-2.95.14-4.43h0C652.35,237.36,652.3,238.84,652.22,240.31Z"/><path class="cls-1" d="M583.18,23.6h0l-.23-.07.33.11Z"/><path class="cls-1" d="M630.7,128.87a.25.25,0,0,1,0,.07h0A.3.3,0,0,0,630.7,128.87Z"/><path class="cls-1" d="M603.72,33.06l-.07-.05.1.06Z"/><path class="cls-1" d="M585.11,24.27l-.3-.11,1.26.45Z"/><path class="cls-1" d="M563.72,18.69l-.36-.06,1.49.27Z"/><path class="cls-1" d="M532.9,15.59l-1.45,0c.73,0,1.45,0,2.17.06Z"/></svg>